<svg width="56" height="56" viewBox="0 0 56 56" fill="none" xmlns="http://www.w3.org/2000/svg">
<path d="M1.49998 10C1.49998 5.30558 5.30556 1.5 9.99998 1.5H46C50.6944 1.5 54.5 5.30558 54.5 10V46C54.5 50.6944 50.6944 54.5 46 54.5H9.99998C5.30556 54.5 1.49998 50.6944 1.49998 46V10Z" fill="black" stroke="white" stroke-width="3"/>
<path d="M29.0606 12.9393C28.4749 12.3536 27.5251 12.3536 26.9393 12.9393L17.3934 22.4853C16.8076 23.0711 16.8076 24.0208 17.3934 24.6066C17.9792 25.1924 18.9289 25.1924 19.5147 24.6066L28 16.1213L36.4853 24.6066C37.0711 25.1924 38.0208 25.1924 38.6066 24.6066C39.1924 24.0208 39.1924 23.0711 38.6066 22.4853L29.0606 12.9393ZM29.5 42L29.5 14L26.5 14L26.5 42L29.5 42Z" fill="white"/>
</svg>
