<svg width="34" height="34" viewBox="0 0 34 34" fill="none" xmlns="http://www.w3.org/2000/svg">
<g clip-path="url(#clip0)">
<path d="M30.0156 4.51562H3.98436C1.78738 4.51562 -1.52588e-05 6.30302 -1.52588e-05 8.5V25.5C-1.52588e-05 27.697 1.78738 29.4844 3.98436 29.4844H30.0156C32.2126 29.4844 34 27.697 34 25.5V8.5C34 6.30302 32.2126 4.51562 30.0156 4.51562ZM31.3437 25.5C31.3437 26.2323 30.7479 26.8281 30.0156 26.8281H3.98436C3.25203 26.8281 2.65623 26.2323 2.65623 25.5V8.5C2.65623 7.76767 3.25203 7.17188 3.98436 7.17188H30.0156C30.7479 7.17188 31.3437 7.76767 31.3437 8.5V25.5Z" fill="white"/>
<path d="M31.1182 6.1716L17 16.6729L2.88176 6.1716L1.29638 8.3029L17 19.9834L32.7036 8.3029L31.1182 6.1716Z" fill="white"/>
</g>
<defs>
<clipPath id="clip0">
<rect width="34" height="34" fill="white"/>
</clipPath>
</defs>
</svg>
