<svg width="56" height="56" viewBox="0 0 56 56" fill="none" xmlns="http://www.w3.org/2000/svg">
<g clip-path="url(#clip0)">
<path d="M49.3657 14.0104C48.6847 14.0098 48.0078 14.114 47.3586 14.3193C47.4201 13.83 47.4513 13.3372 47.4519 12.844C47.3307 5.63035 41.3846 -0.119306 34.1708 0.00188103C28.9068 0.0902925 24.2103 3.33002 22.2581 8.21959C18.4828 5.87856 13.5245 7.04144 11.1836 10.8168C10.4215 12.0458 10.0048 13.4576 9.97756 14.9034C8.96117 14.3166 7.80786 14.0084 6.63425 14.0104C3.02688 14.0104 0.102539 16.9348 0.102539 20.5421C0.102539 24.1495 3.02688 27.0739 6.63425 27.0739C7.14956 27.0739 7.56735 26.6561 7.56735 26.1408C7.56735 25.6254 7.14956 25.2077 6.63425 25.2077C4.05784 25.1658 2.00327 23.0433 2.04514 20.4669C2.08701 17.8905 4.20947 15.8359 6.78588 15.8778C8.35419 15.9033 9.8047 16.7151 10.6466 18.0385C10.9289 18.4697 11.5071 18.5904 11.9384 18.3083C12.311 18.0644 12.4594 17.5912 12.2926 17.1782C11.9988 16.4695 11.8454 15.7105 11.841 14.9434C11.8784 11.5618 14.6459 8.84874 18.0274 8.87825C19.5342 8.8842 20.9877 9.43578 22.1191 10.4309C22.5075 10.7696 23.097 10.7293 23.4356 10.3409C23.5274 10.2357 23.5943 10.1111 23.6316 9.97651C25.339 4.03545 31.5392 0.603382 37.4802 2.31073C42.1972 3.66629 45.4809 7.93686 45.5791 12.8439C45.5752 13.8221 45.4386 14.7952 45.1732 15.7365C45.0352 16.2331 45.3258 16.7474 45.8223 16.8854C46.0909 16.9601 46.3789 16.9107 46.6074 16.7508C47.4145 16.1816 48.3781 15.8763 49.3657 15.8765C51.9423 15.8765 54.0312 17.9654 54.0312 20.542C54.0312 23.1187 51.9423 25.2075 49.3657 25.2075C48.8503 25.2075 48.4326 25.6253 48.4326 26.1406C48.4326 26.6559 48.8503 27.0737 49.3657 27.0737C52.973 27.0737 55.8974 24.1494 55.8974 20.542C55.8974 16.9348 52.973 14.0104 49.3657 14.0104Z" fill="black"/>
<path d="M43.8603 35.4717H12.1349C10.5888 35.4717 9.33557 36.725 9.33557 38.271V42.0035C9.33557 43.5495 10.5888 44.8028 12.1349 44.8028H43.8603C45.4064 44.8028 46.6596 43.5495 46.6596 42.0035V38.271C46.6596 36.725 45.4064 35.4717 43.8603 35.4717ZM44.7934 42.0035C44.7934 42.5188 44.3756 42.9366 43.8603 42.9366H12.1349C11.6196 42.9366 11.2018 42.5188 11.2018 42.0035V38.271C11.2018 37.7557 11.6196 37.3379 12.1349 37.3379H43.8603C44.3756 37.3379 44.7934 37.7557 44.7934 38.271V42.0035Z" fill="black"/>
<path d="M41.2719 38.3289C40.2776 38.3351 39.4748 39.1428 39.4748 40.1371C39.4795 41.1383 40.2931 41.947 41.2943 41.9455C42.2931 41.9393 43.0977 41.1247 43.0915 40.1259C43.0853 39.1273 42.2707 38.3227 41.2719 38.3289ZM41.2943 40.196C41.2663 40.196 41.2477 40.1652 41.2477 40.1372L41.2943 40.0794V40.196Z" fill="black"/>
<path d="M31.5434 39.2042H13.8144C13.2991 39.2042 12.8813 39.622 12.8813 40.1373C12.8813 40.6526 13.2991 41.0704 13.8144 41.0704H31.5434C32.0587 41.0704 32.4765 40.6526 32.4765 40.1373C32.4765 39.622 32.0588 39.2042 31.5434 39.2042Z" fill="black"/>
<path d="M37.3053 39.2042H34.8232C34.3079 39.2042 33.8901 39.622 33.8901 40.1373C33.8901 40.6526 34.3079 41.0704 34.8232 41.0704H37.3053C37.8206 41.0704 38.2384 40.6526 38.2384 40.1373C38.2384 39.622 37.8207 39.2042 37.3053 39.2042Z" fill="black"/>
<path d="M43.8603 46.6689H12.1349C10.5888 46.6689 9.33557 47.9222 9.33557 49.4682V53.2006C9.33557 54.7467 10.5888 56 12.1349 56H43.8603C45.4064 56 46.6596 54.7467 46.6596 53.2006V49.4682C46.6596 47.9222 45.4064 46.6689 43.8603 46.6689ZM44.7934 53.2006C44.7934 53.716 44.3756 54.1337 43.8603 54.1337H12.1349C11.6196 54.1337 11.2018 53.716 11.2018 53.2006V49.4682C11.2018 48.9529 11.6196 48.5351 12.1349 48.5351H43.8603C44.3756 48.5351 44.7934 48.9529 44.7934 49.4682V53.2006Z" fill="black"/>
<path d="M41.2719 49.5262C40.2776 49.5323 39.4748 50.3401 39.4748 51.3344C39.4795 52.3356 40.2931 53.1443 41.2943 53.1427C42.2931 53.1366 43.0977 52.322 43.0915 51.3232C43.0853 50.3245 42.2707 49.52 41.2719 49.5262ZM41.2943 51.3933C41.2663 51.3933 41.2477 51.3625 41.2477 51.3345L41.2943 51.2767V51.3933Z" fill="black"/>
<path d="M31.5434 50.4014H13.8144C13.2991 50.4014 12.8813 50.8192 12.8813 51.3345C12.8813 51.8498 13.2991 52.2676 13.8144 52.2676H31.5434C32.0587 52.2676 32.4765 51.8498 32.4765 51.3345C32.4765 50.8192 32.0588 50.4014 31.5434 50.4014Z" fill="black"/>
<path d="M37.3053 50.4014H34.8232C34.3079 50.4014 33.8901 50.8192 33.8901 51.3345C33.8901 51.8498 34.3079 52.2676 34.8232 52.2676H37.3053C37.8206 52.2676 38.2384 51.8498 38.2384 51.3345C38.2384 50.8192 37.8207 50.4014 37.3053 50.4014Z" fill="black"/>
<path d="M43.8603 24.2745H12.1349C10.5888 24.2745 9.33557 25.5278 9.33557 27.0738V30.8063C9.33557 32.3523 10.5888 33.6056 12.1349 33.6056H43.8603C45.4064 33.6056 46.6596 32.3523 46.6596 30.8063V27.0738C46.6596 25.5278 45.4064 24.2745 43.8603 24.2745ZM44.7934 30.8063C44.7934 31.3216 44.3756 31.7394 43.8603 31.7394H12.1349C11.6196 31.7394 11.2018 31.3216 11.2018 30.8063V27.0738C11.2018 26.5585 11.6196 26.1407 12.1349 26.1407H43.8603C44.3756 26.1407 44.7934 26.5585 44.7934 27.0738V30.8063Z" fill="black"/>
<path d="M42.7985 28.6853C42.6186 27.694 41.6693 27.0362 40.678 27.216C40.2083 27.3012 39.7907 27.5671 39.5149 27.9566C39.2379 28.3475 39.1296 28.8333 39.2144 29.3049C39.3714 30.1735 40.1271 30.8054 41.0097 30.8063C41.1116 30.8061 41.2134 30.7977 41.3139 30.7811C41.793 30.702 42.2201 30.4328 42.498 30.0346C42.776 29.6436 42.8843 29.1571 42.7985 28.6853ZM40.9621 29.0138L41.0041 28.94L41.0088 29.0567C40.9668 29.0567 40.964 29.0334 40.9621 29.0138Z" fill="black"/>
<path d="M31.3568 28.007H13.6279C13.1126 28.007 12.6948 28.4248 12.6948 28.9401C12.6948 29.4554 13.1126 29.8732 13.6279 29.8732H31.3568C31.8721 29.8732 32.2899 29.4554 32.2899 28.9401C32.2899 28.4248 31.8722 28.007 31.3568 28.007Z" fill="black"/>
<path d="M36.709 28.007H34.227C33.7117 28.007 33.2939 28.4248 33.2939 28.9401C33.2939 29.4554 33.7117 29.8732 34.227 29.8732H36.709C37.2243 29.8732 37.6421 29.4554 37.6421 28.9401C37.6421 28.4248 37.2245 28.007 36.709 28.007Z" fill="black"/>
<path d="M23.9918 15.2169L21.1925 12.4176C20.8281 12.0533 20.2375 12.0533 19.8731 12.4176L17.0738 15.2169C16.7158 15.5876 16.7261 16.1784 17.0968 16.5363C17.4583 16.8855 18.0316 16.8855 18.3932 16.5363L19.5997 15.3298V21.4752C19.5997 21.9905 20.0175 22.4083 20.5328 22.4083C21.0481 22.4083 21.4659 21.9905 21.4659 21.4752V15.3298L22.6724 16.5363C23.0431 16.8943 23.6338 16.884 23.9918 16.5133C24.341 16.1518 24.341 15.5785 23.9918 15.2169Z" fill="black"/>
<path d="M38.8986 18.0162C38.537 17.667 37.9637 17.667 37.602 18.0162L36.3955 19.2227V13.0773C36.3955 12.562 35.9777 12.1442 35.4624 12.1442C34.9471 12.1442 34.5293 12.562 34.5293 13.0773V19.2227L33.3228 18.0162C32.9522 17.6582 32.3615 17.6684 32.0034 18.0391C31.6542 18.4007 31.6542 18.974 32.0034 19.3356L34.8027 22.135C35.1671 22.4992 35.7578 22.4992 36.1221 22.135L38.9215 19.3356C39.2795 18.965 39.2693 18.3742 38.8986 18.0162Z" fill="black"/>
</g>
<defs>
<clipPath id="clip0">
<rect width="56" height="56" fill="white"/>
</clipPath>
</defs>
</svg>
