<svg width="34" height="34" viewBox="0 0 34 34" fill="none" xmlns="http://www.w3.org/2000/svg">
<g clip-path="url(#clip0)">
<path d="M33.9667 9.99609C33.8871 8.18954 33.595 6.94755 33.1765 5.87136C32.7447 4.729 32.0805 3.70624 31.2103 2.85603C30.3601 1.99258 29.3306 1.32164 28.2015 0.896659C27.1191 0.478167 25.8836 0.186026 24.077 0.106375C22.257 0.0199776 21.6792 0 17.0631 0C12.4469 0 11.8691 0.0199776 10.0558 0.0996288C8.24928 0.17928 7.00729 0.47168 5.93135 0.889914C4.78873 1.32164 3.76598 1.98583 2.91576 2.85603C2.05231 3.70624 1.38164 4.73574 0.956397 5.86487C0.537905 6.94755 0.245764 8.1828 0.166113 9.98935C0.0797158 11.8094 0.0597382 12.3872 0.0597382 17.0033C0.0597382 21.6195 0.0797158 22.1973 0.159367 24.0105C0.239018 25.8171 0.531418 27.0591 0.949911 28.1353C1.38164 29.2776 2.05231 30.3004 2.91576 31.1506C3.76598 32.0141 4.79548 32.685 5.92461 33.11C7.00729 33.5285 8.24253 33.8206 10.0493 33.9003C11.8624 33.9802 12.4404 33.9999 17.0566 33.9999C21.6727 33.9999 22.2505 33.9802 24.0638 33.9003C25.8703 33.8206 27.1123 33.5285 28.1883 33.11C30.4732 32.2266 32.2798 30.42 33.1632 28.1353C33.5815 27.0526 33.8739 25.8171 33.9535 24.0105C34.0332 22.1973 34.0531 21.6195 34.0531 17.0033C34.0531 12.3872 34.0464 11.8094 33.9667 9.99609ZM30.905 23.8777C30.8318 25.5382 30.5529 26.4349 30.3204 27.0326C29.7491 28.5138 28.5736 29.6894 27.0924 30.2607C26.4946 30.4932 25.5914 30.7721 23.9374 30.845C22.1441 30.9249 21.6063 30.9446 17.0698 30.9446C12.5333 30.9446 11.9887 30.9249 10.2019 30.845C8.54142 30.7721 7.64476 30.4932 7.04699 30.2607C6.30989 29.9883 5.63895 29.5566 5.09437 28.992C4.5298 28.4407 4.09808 27.7765 3.82566 27.0394C3.59319 26.4416 3.31428 25.5382 3.24137 23.8845C3.16146 22.0911 3.14175 21.553 3.14175 17.0166C3.14175 12.4801 3.16146 11.9355 3.24137 10.1489C3.31428 8.48843 3.59319 7.59177 3.82566 6.994C4.09808 6.25664 4.5298 5.58596 5.10111 5.04112C5.65218 4.47655 6.31638 4.04483 7.05373 3.77266C7.65151 3.5402 8.55491 3.26129 10.2086 3.18812C12.002 3.10847 12.5401 3.08849 17.0763 3.08849C21.6195 3.08849 22.1574 3.10847 23.9442 3.18812C25.6047 3.26129 26.5013 3.5402 27.0991 3.77266C27.8362 4.04483 28.5071 4.47655 29.0517 5.04112C29.6163 5.59245 30.048 6.25664 30.3204 6.994C30.5529 7.59177 30.8318 8.49492 30.905 10.1489C30.9846 11.9422 31.0046 12.4801 31.0046 17.0166C31.0046 21.553 30.9846 22.0844 30.905 23.8777Z" fill="white"/>
<path d="M17.063 8.2692C12.2411 8.2692 8.3289 12.1812 8.3289 17.0033C8.3289 21.8255 12.2411 25.7375 17.063 25.7375C21.8852 25.7375 25.7971 21.8255 25.7971 17.0033C25.7971 12.1812 21.8852 8.2692 17.063 8.2692ZM17.063 22.6689C13.9348 22.6689 11.3974 20.1318 11.3974 17.0033C11.3974 13.8749 13.9348 11.3377 17.063 11.3377C20.1915 11.3377 22.7286 13.8749 22.7286 17.0033C22.7286 20.1318 20.1915 22.6689 17.063 22.6689Z" fill="white"/>
<path d="M28.1817 7.92388C28.1817 9.04989 27.2687 9.9629 26.1424 9.9629C25.0164 9.9629 24.1034 9.04989 24.1034 7.92388C24.1034 6.7976 25.0164 5.88486 26.1424 5.88486C27.2687 5.88486 28.1817 6.7976 28.1817 7.92388Z" fill="white"/>
</g>
<defs>
<clipPath id="clip0">
<rect width="34" height="34" fill="white"/>
</clipPath>
</defs>
</svg>
