<svg width="54" height="54" viewBox="0 0 54 54" fill="none" xmlns="http://www.w3.org/2000/svg">
<path d="M6.29723 4.52174C6.29723 5.01854 5.89442 5.42134 5.39762 5.42134C4.90082 5.42134 4.49802 5.01854 4.49802 4.52174C4.49802 4.02493 4.90082 3.62213 5.39762 3.62213C5.89442 3.62213 6.29723 4.02493 6.29723 4.52174Z" fill="#231F20"/>
<path d="M9.89565 4.52174C9.89565 5.01854 9.49284 5.42134 8.99604 5.42134C8.49924 5.42134 8.09644 5.01854 8.09644 4.52174C8.09644 4.02493 8.49924 3.62213 8.99604 3.62213C9.49284 3.62213 9.89565 4.02493 9.89565 4.52174Z" fill="#231F20"/>
<path d="M13.4941 4.52174C13.4941 5.01854 13.0913 5.42134 12.5945 5.42134C12.0977 5.42134 11.6949 5.01854 11.6949 4.52174C11.6949 4.02493 12.0977 3.62213 12.5945 3.62213C13.0913 3.62213 13.4941 4.02493 13.4941 4.52174Z" fill="#231F20"/>
<path d="M18.8917 3.62213C18.3949 3.62213 17.9921 4.02493 17.9921 4.52174C17.9921 5.01854 18.3949 5.42134 18.8917 5.42134H41.3818C41.8786 5.42134 42.2814 5.01854 42.2814 4.52174C42.2814 4.02493 41.8786 3.62213 41.3818 3.62213H18.8917Z" fill="#231F20"/>
<path d="M12.9722 44.1039H1.79921V9.0193H41.3818C41.8786 9.0193 42.2814 8.6165 42.2814 8.1197C42.2814 7.62289 41.8786 7.22009 41.3818 7.22009H1.79921V1.82246H44.0806V12.9955C44.0806 13.4923 44.4834 13.8951 44.9802 13.8951C45.477 13.8951 45.8798 13.4923 45.8798 12.9955V0.922859C45.8798 0.426056 45.477 0.0232544 44.9802 0.0232544H0.899605C0.402801 0.0232544 0 0.426056 0 0.922859V45.0035C0 45.5003 0.402801 45.9031 0.899605 45.9031H12.9722C13.469 45.9031 13.8718 45.5003 13.8718 45.0035C13.8718 44.5067 13.469 44.1039 12.9722 44.1039Z" fill="#231F20"/>
<path d="M53.7154 49.9157L48.7675 45.0039L51.6645 43.0699C51.9627 42.8748 52.1182 42.5221 52.0602 42.1703C52.0001 41.8197 51.7391 41.5377 51.3943 41.4503L39.3129 38.2389C39.0037 38.1585 38.6755 38.2477 38.4498 38.4734C38.224 38.6992 38.1348 39.0273 38.2152 39.3366L41.3818 51.418C41.4692 51.7628 41.7512 52.0237 42.1013 52.0839C42.4532 52.1419 42.8063 51.9864 43.0009 51.6881L44.9802 48.7912L49.9281 53.739C50.0976 53.9073 50.3278 54.0013 50.5668 54C50.8057 54.0013 51.0359 53.9073 51.2054 53.739L53.7514 51.1931C53.917 51.0196 54.0066 50.7868 53.9996 50.5469C53.993 50.3071 53.8906 50.08 53.7154 49.9157ZM50.5307 51.8318L45.4388 46.7403C45.2715 46.5738 45.0453 46.4803 44.8094 46.4794H44.7193C44.4522 46.5066 44.2115 46.6516 44.0626 46.8752L42.6232 49.0253L40.3474 40.371L49.0017 42.6468L46.8515 44.1043C46.6279 44.2532 46.483 44.4939 46.4557 44.761C46.4311 45.0276 46.5269 45.2916 46.7166 45.4805L51.8081 50.5724L50.5307 51.8318Z" fill="#231F20"/>
<path d="M37.3876 47.2617C35.5111 48.041 33.5151 48.4943 31.4862 48.6024V40.5059C32.8162 40.5371 34.1437 40.6421 35.4623 40.8209C35.9591 40.8903 36.4186 40.5441 36.488 40.0473C36.5574 39.5501 36.2113 39.0911 35.7145 39.0217C34.3119 38.8381 32.9001 38.7331 31.4862 38.7067V31.5099H40.4822C40.4365 32.9208 40.2986 34.3273 40.0684 35.7202C39.9863 36.217 40.3228 36.6861 40.8196 36.7683C41.3164 36.85 41.7855 36.5139 41.8676 36.0167C42.1066 34.5254 42.245 33.0196 42.2814 31.5099H48.5787C48.4851 33.5362 48.0471 35.5317 47.2833 37.4113C47.097 37.8682 47.3136 38.3904 47.7691 38.5806C47.8772 38.6268 47.9931 38.6514 48.1108 38.6527C48.4794 38.6531 48.811 38.4287 48.9476 38.086C49.9083 35.7114 50.3941 33.1716 50.3779 30.6103C50.3801 25.9664 48.7425 21.471 45.7538 17.917C41.9977 13.4233 36.4437 10.8242 30.5866 10.819H29.9386C25.5702 10.9622 21.3704 12.5435 17.9921 15.317C17.6069 15.6324 17.5506 16.2003 17.866 16.5856C18.1818 16.9704 18.7494 17.027 19.1346 16.7112C20.6975 15.4255 22.4638 14.4099 24.3614 13.7067C22.8608 15.3394 21.6828 17.241 20.889 19.3112C19.3551 18.8759 17.8524 18.3382 16.391 17.7009C16.0343 17.5502 15.621 17.6442 15.3653 17.935C15.3653 17.935 15.3201 17.935 15.3021 17.989C12.3915 21.5404 10.8018 25.9915 10.804 30.5835C10.8045 35.1843 12.4148 39.6397 15.3561 43.1779L15.4193 43.2495C19.1605 47.7695 24.7189 50.3906 30.5866 50.4016C33.151 50.4033 35.6908 49.9021 38.0623 48.9261C38.3795 48.8198 38.6114 48.5461 38.6641 48.2158C38.7173 47.8855 38.5824 47.553 38.3145 47.3527C38.0465 47.1524 37.6894 47.1177 37.3876 47.2617ZM29.687 48.5215C26.8173 48.0625 24.2893 45.3729 22.661 41.4143C24.9658 40.8723 27.3202 40.5674 29.687 40.5059V48.5215ZM29.687 38.7067C27.1076 38.7599 24.541 39.0884 22.0315 39.6871C21.2026 37.038 20.7511 34.2851 20.6909 31.5099H29.687V38.7067ZM12.6393 31.5099H18.8917C18.9479 34.4525 19.4206 37.3718 20.2951 40.1822C18.962 40.5714 17.6525 41.037 16.373 41.5764C14.1257 38.683 12.8224 35.1689 12.6393 31.5099ZM38.4581 19.815C36.1704 20.35 33.8344 20.6514 31.4862 20.7146V12.7082C34.3291 13.1848 36.8298 15.8836 38.4581 19.815ZM29.687 29.7107H20.6909C20.7471 26.9253 21.2018 24.1628 22.0403 21.5062C24.5459 22.1137 27.1094 22.4515 29.687 22.5138V29.7107ZM31.4862 22.5138C34.0444 22.4589 36.5895 22.133 39.0788 21.5422C39.9142 24.187 40.3684 26.9376 40.4282 29.7107H31.4862V22.5138ZM48.5787 29.7107H42.2814C42.2278 26.7716 41.7583 23.8549 40.8872 21.0476C42.2393 20.6593 43.5671 20.1906 44.8634 19.6441C47.1041 22.5397 48.4008 26.0538 48.5787 29.7107ZM43.6308 18.2047C42.5331 18.6461 41.413 19.0305 40.2753 19.3564C39.4864 17.2713 38.3013 15.3587 36.785 13.7247C39.363 14.6818 41.6889 16.214 43.586 18.2047H43.6308ZM29.687 12.699V20.7146C27.3202 20.6558 24.9662 20.3544 22.661 19.815C24.2893 15.8476 26.8173 13.158 29.687 12.699ZM18.8917 29.7107H12.5945C12.7803 26.0551 14.0765 22.5437 16.3097 19.6441C17.5924 20.1836 18.9053 20.6492 20.2411 21.0384C19.3832 23.8509 18.929 26.7707 18.8917 29.7107ZM17.5871 43.0159C18.6677 42.5819 19.7698 42.2037 20.889 41.8821C21.6801 43.9418 22.8521 45.8342 24.3434 47.4599C21.782 46.5128 19.4711 44.9925 17.5871 43.0159Z" fill="#231F20"/>
<path d="M51.3495 21.9559C51.4874 22.292 51.8138 22.512 52.1771 22.5138C52.2952 22.5169 52.4121 22.4923 52.5188 22.4418C52.9743 22.2511 53.1909 21.7293 53.0047 21.2725C52.0787 19.034 50.8167 16.9501 49.2622 15.0921C48.9323 14.7969 48.4363 14.7859 48.0933 15.0657C47.7507 15.346 47.6624 15.8344 47.8859 16.2166C49.3236 17.9437 50.4916 19.8791 51.3495 21.9559Z" fill="#231F20"/>
<path d="M11.9018 15.0921C8.28006 19.4526 6.29768 24.942 6.29724 30.6103C6.29724 31.1071 6.70004 31.5099 7.19685 31.5099C7.69365 31.5099 8.09645 31.1071 8.09645 30.6103C8.09118 25.3532 9.92773 20.2604 13.2872 16.2166C13.6052 15.834 13.5529 15.266 13.1703 14.948C12.7878 14.63 12.2198 14.6827 11.9018 15.0653V15.0921Z" fill="#231F20"/>
</svg>
