<svg width="34" height="34" viewBox="0 0 34 34" fill="none" xmlns="http://www.w3.org/2000/svg">
<g clip-path="url(#clip0)">
<path d="M24.8016 20.2683L24.7888 20.3745C21.6735 18.8218 21.3477 18.615 20.9454 19.2185C20.6663 19.6364 19.8531 20.5842 19.6081 20.8647C19.3601 21.1409 19.1136 21.1622 18.6929 20.9709C18.2679 20.7584 16.9036 20.3122 15.2886 18.8672C14.0306 17.7409 13.1863 16.3597 12.937 15.9347C12.5219 15.2178 13.3903 15.1158 14.1808 13.6198C14.3225 13.3223 14.2502 13.0886 14.1454 12.8775C14.0391 12.665 13.1934 10.5825 12.8392 9.75233C12.4992 8.925 12.1493 9.02983 11.8872 9.02983C11.0712 8.959 10.4748 8.97033 9.94922 9.51717C7.66272 12.0303 8.2393 14.6228 10.1957 17.3797C14.0406 22.4117 16.0891 23.3382 19.8347 24.6245C20.8462 24.9461 21.7685 24.9008 22.4981 24.7959C23.3112 24.667 25.0013 23.7745 25.354 22.7758C25.7153 21.777 25.7153 20.9483 25.6091 20.757C25.5042 20.5658 25.2266 20.4595 24.8016 20.2683Z" fill="white"/>
<path d="M29.07 4.88527C18.1772 -5.64481 0.150144 1.99243 0.14306 16.8476C0.14306 19.8169 0.92081 22.7126 2.40264 25.2697L-2.28882e-05 33.9992L8.97456 31.6589C20.1733 37.708 33.9943 29.6755 34 16.8561C34 12.3568 32.2433 8.12235 29.0487 4.94052L29.07 4.88527ZM31.1695 16.8094C31.161 27.6228 19.2907 34.376 9.90248 28.8567L9.39248 28.5535L4.07998 29.9348L5.50373 24.771L5.16514 24.2398C-0.67719 14.9394 6.03498 2.78435 17.102 2.78435C20.8618 2.78435 24.3907 4.2506 27.0484 6.90685C29.7046 9.54044 31.1695 13.0694 31.1695 16.8094Z" fill="white"/>
</g>
<defs>
<clipPath id="clip0">
<rect width="34" height="34" fill="white"/>
</clipPath>
</defs>
</svg>
