<svg width="113" height="48" viewBox="0 0 113 48" fill="none" xmlns="http://www.w3.org/2000/svg">
<path fill-rule="evenodd" clip-rule="evenodd" d="M32.91 17.2813C32.9039 17.3125 32.8857 17.3377 32.8583 17.354L31.4925 18.2136L32.2339 24.0418C32.2385 24.0774 32.2233 24.1145 32.1974 24.1383C32.1701 24.162 32.1336 24.1739 32.0987 24.1694L30.9638 23.9868L28.5663 33.6659C28.5541 33.7134 28.5116 33.749 28.4645 33.7534C28.4129 33.7579 28.3673 33.7327 28.346 33.6866L27.2597 31.3456L24.1816 38.7904C24.1618 38.8349 24.1163 38.8661 24.0646 38.8616L21.5167 38.6701L19.7346 46.9285C19.7255 46.976 19.6844 47.0116 19.6343 47.0175C19.6313 47.0175 19.6267 47.0175 19.6221 47.0175C19.575 47.0175 19.534 46.9923 19.5158 46.9522L17.287 42.3072L15.1235 43.1623C15.1204 43.1652 15.1174 43.1652 15.1174 43.1652C15.1159 43.1667 15.1128 43.1667 15.1113 43.1667C15.0992 43.1697 15.0885 43.1712 15.0794 43.1712C15.0764 43.1712 15.0718 43.1712 15.0703 43.1712C15.0673 43.1712 15.0673 43.1697 15.0657 43.1697C15.0551 43.1697 15.046 43.1667 15.0369 43.1623C15.0338 43.1623 15.0308 43.1593 15.0308 43.1593C15.0217 43.1548 15.011 43.1504 15.0034 43.143H15.0019C14.9943 43.1356 14.9867 43.1266 14.9822 43.1162C14.9807 43.1162 14.9807 43.1148 14.9776 43.1118C14.9776 43.1103 14.9761 43.1103 14.9761 43.1073L12.0651 37.1827L10.4759 38.6315C10.441 38.6627 10.3923 38.6701 10.3483 38.6508C10.3042 38.6315 10.2784 38.5885 10.2799 38.544L10.5655 31.6796C10.5655 31.6781 10.5655 31.6781 10.5655 31.6751C10.5655 31.6632 10.5686 31.6543 10.5731 31.6425L12.7032 26.5357L12.7564 22.2915L9.76183 19.1295L3.42176 20.1568C3.39289 20.1613 3.36251 20.1553 3.3382 20.1405L1.77179 19.1399C1.74748 19.1236 1.73077 19.0998 1.72317 19.0701L1.54238 18.3472L0.0473768 17.2769C0.0109134 17.2501 -0.00579827 17.2071 0.00179827 17.1655L0.190192 16.0284C0.196269 15.9957 0.21754 15.9645 0.249445 15.9482L6.37833 12.5873L7.28536 9.62568C7.2884 9.6242 7.2884 9.62123 7.29144 9.61975C7.29144 9.61678 7.29296 9.61529 7.29599 9.60935C7.29903 9.60193 7.30359 9.59748 7.30511 9.59006C7.30815 9.58857 7.30967 9.5856 7.31271 9.58412C7.31423 9.58115 7.31727 9.57818 7.31727 9.57669L11.9177 5.32506C11.9177 5.32209 11.9208 5.32209 11.9208 5.32209C11.9375 5.30724 11.9618 5.29685 11.9861 5.29388H11.9876L12.2444 5.2731L11.7141 3.30761V3.30612C11.7126 3.29721 11.7126 3.28534 11.7126 3.27495C11.7126 3.27346 11.7126 3.27346 11.7126 3.27049C11.7126 3.26604 11.7126 3.26158 11.7141 3.25416C11.7141 3.25268 11.7172 3.24674 11.7172 3.24377C11.7187 3.24229 11.7187 3.24229 11.7187 3.23932L12.7822 0.472189C12.7974 0.432108 12.8354 0.403902 12.8794 0.399448C12.9235 0.394995 12.9676 0.412809 12.9888 0.451406L14.1876 2.30259L14.7452 2.9914L15.4061 1.63308L15.4091 1.63011C15.4091 1.62714 15.4091 1.62565 15.4106 1.62269C15.4137 1.6212 15.4167 1.61675 15.4182 1.61378C15.4213 1.61081 15.4213 1.60932 15.4243 1.60636C15.4304 1.6019 15.4349 1.59448 15.4425 1.59003C15.4425 1.59003 15.4425 1.59003 15.4456 1.59003L17.7154 0.020898C17.7458 0.000114858 17.7853 -0.00582324 17.8202 0.00605285C17.8552 0.0179289 17.8825 0.0446501 17.8947 0.0802784L19.0402 3.62826V3.63123C19.0433 3.63717 19.0433 3.64756 19.0448 3.6535C19.0448 3.65647 19.0448 3.65943 19.0448 3.66389C19.0448 3.67576 19.0433 3.68467 19.0402 3.69506L18.5389 5.3117L26.2448 8.36385C26.2858 8.38166 26.3147 8.41581 26.3177 8.45886C26.3223 8.50191 26.301 8.54199 26.2646 8.56574L25.0765 9.30503L29.7195 12.5116C29.721 12.5116 29.721 12.5145 29.724 12.5145C29.7301 12.5205 29.7407 12.5279 29.7453 12.5383C29.7483 12.5383 29.7483 12.5398 29.7498 12.5398L32.8918 17.1967C32.91 17.2219 32.9161 17.2531 32.91 17.2813ZM31.2616 18.2448L24.6586 16.3431L30.9379 23.7523L31.9847 23.92L31.2616 18.2448ZM30.7313 23.9557L26.1947 23.5044L27.3645 31.0264L28.4174 33.2947L30.7313 23.9557ZM26.8191 31.8028L21.6443 38.4519L23.9977 38.6271L26.8191 31.8028ZM21.3025 38.5558L19.338 33.3868L17.4678 42.1469L19.5781 46.5499L21.3025 38.5558ZM10.5245 38.2767L11.9709 36.9585L10.7676 32.4486L10.5245 38.2767ZM12.9524 22.1668L16.2037 24.9221L16.7187 22.4979L14.9381 19.1236H10.0703L12.9524 22.1668ZM3.42632 19.9252L9.2635 18.9811L5.30114 17.9196L1.79002 18.3754L1.94043 18.9736L3.42632 19.9252ZM0.241849 17.1329L1.59251 18.1008L2.35824 16.1783L1.38893 15.5845L0.410491 16.1189L0.241849 17.1329ZM12.4799 5.25677L14.3334 5.11425V3.95188L11.9876 3.4323L12.4799 5.25677ZM11.9831 3.19775L14.3851 3.72921L14.6342 3.21853L14.0022 2.43917C13.9992 2.43471 13.9961 2.43323 13.9946 2.43026L12.919 0.766123L11.9831 3.19775ZM15.7236 1.67316L18.7273 3.41301L17.72 0.295533L15.7236 1.67316ZM25.9501 8.493L19.6191 5.98269L24.8668 9.164L25.9501 8.493ZM24.8911 9.45496L22.3615 12.6021L24.3624 15.969L29.4475 12.6021L24.8911 9.45496ZM24.5948 16.0907L31.1947 17.9894L29.5888 12.7832L24.5948 16.0907ZM30.6052 23.7167L24.3533 16.3416L22.369 20.5042L26.1005 23.2669L30.6052 23.7167ZM27.0151 30.2945L25.9501 23.4405L22.5271 20.908L27.0151 30.2945ZM19.4261 32.9652L21.2007 37.6369L20.1357 28.3751L19.4261 32.9652ZM20.0232 27.5615L16.506 25.409L19.2575 32.5287L20.0232 27.5615ZM12.2201 36.9719L14.7695 42.1632L12.5695 31.8904L12.2201 36.9719ZM12.6561 27.2542L10.8041 31.6915L12.0347 36.2905L12.3948 31.0531L12.6561 27.2542ZM12.6637 31.2179L15.1159 42.6724L19.1496 33.0498L12.6637 31.2179ZM12.919 26.8208L12.6318 30.9744L18.9126 32.7469L12.919 26.8208ZM15.0095 24.2095L12.9767 26.555L19.0038 32.5154L16.1763 25.2012L15.0095 24.2095ZM20.2906 27.4472L27.0029 30.8067L22.2475 20.8619L20.2906 27.4472ZM16.4073 25.0809L20.0825 27.3285L22.047 20.7254L16.9421 22.5676L16.4073 25.0809ZM15.2253 19.1696L16.8995 22.339L21.8099 20.5695L15.2253 19.1696ZM15.286 18.9499L22.0226 20.3825L19.8485 15.6617L15.286 18.9499ZM5.70224 17.792L9.79374 18.8875L15.4243 16.2451H10.2389L5.70224 17.792ZM1.82649 18.1408L5.28595 17.6955L10.1204 16.0462L11.2006 11.4858L9.5309 12.0247H9.52938C9.52634 12.0247 9.52634 12.0261 9.52482 12.0261L6.5333 12.7699L2.60133 16.1961L1.82649 18.1408ZM5.60501 13.2731L1.61986 15.4568L2.4889 15.9883L5.60501 13.2731ZM11.705 5.83424L7.80648 9.44012L10.561 8.74092L11.705 5.83424ZM18.7349 3.89547L14.6023 6.1163L16.0259 9.04672L17.5726 7.65277L18.7349 3.89547ZM24.4551 9.1833L18.4659 5.5507L17.8142 7.65277L21.0943 9.15806L24.4551 9.1833ZM15.2268 18.7109L19.6875 15.4969L15.4288 12.9614L16.0487 16.11C16.0502 16.1219 16.0502 16.1338 16.0502 16.1427C16.0502 16.1471 16.0487 16.1501 16.0487 16.1516C16.0487 16.1575 16.0487 16.162 16.0457 16.1664L15.2268 18.7109ZM11.4437 11.468L10.365 16.0165H15.7935L15.1615 12.8174L11.4437 11.468ZM20.6583 9.38222L16.0153 9.3466L11.664 11.3047L15.2511 12.6066L20.6583 9.38222ZM16.2857 9.12243L20.5383 9.15361L17.6957 7.84872L16.2857 9.12243ZM11.3556 11.1933L15.5352 9.31394L10.6582 8.94875L7.73507 9.69249L9.40631 10.4733L11.3556 11.1933ZM11.0122 11.3091L9.42303 10.7242L9.20728 11.2379L9.54609 11.7797L11.0122 11.3091ZM24.6313 9.41043L21.1004 9.38519L15.4866 12.7313L19.8683 15.3381L22.129 12.5234L24.6313 9.41043ZM24.1953 16.1353L22.2095 12.7936L20.0308 15.5029L22.2232 20.2681L24.1953 16.1353ZM14.5659 3.88656V5.87729L18.6938 3.65943L15.561 1.84388L14.5659 3.88656ZM12.0803 5.51507L10.8132 8.73349L15.798 9.1061L14.3456 6.1163C14.3425 6.11333 14.3425 6.11036 14.3425 6.11036C14.341 6.10591 14.338 6.10145 14.338 6.097C14.3365 6.09403 14.3365 6.08958 14.3365 6.08809C14.3334 6.08216 14.3334 6.0777 14.3334 6.07325C14.3334 6.07028 14.3334 5.34435 14.3334 5.34435L12.0803 5.51507ZM6.64725 12.5071L9.31363 11.8435L8.97939 11.3062C8.95964 11.2765 8.95812 11.2379 8.97027 11.2052L9.21032 10.6352L7.47072 9.82015L6.64725 12.5071ZM14.9244 18.895L15.7433 16.3461L10.3149 18.895H14.9244ZM12.9402 26.2448L14.8333 24.0596L12.9858 22.4934L12.9402 26.2448ZM18.9339 34.1646L15.2921 42.852L17.2444 42.0786L18.9339 34.1646ZM21.5061 38.253L27.0759 31.0976L20.2906 27.7026L21.5061 38.253ZM32.6335 17.2249L29.9929 13.3147L31.4332 17.979L32.6335 17.2249Z" fill="white"/>
<path d="M48.9658 33H41V32.5707C41 32.5707 42.5113 32.356 42.5113 30.3322V17.6678C42.5113 15.7053 41 15.4293 41 15.4293V15H48.9658V15.4293C48.9658 15.4293 47.4545 15.644 47.4545 17.8211V26.1618L52.8384 17.5758C53.9404 15.7973 52.6495 15.4293 52.6495 15.4293L52.9329 15H57.5297L57.2464 15.4293C56.9 15.46 55.2313 16.0733 54.3182 17.6678L51.0753 22.8807L55.2628 30.1789C56.5222 32.3254 58.1909 32.5707 58.1909 32.5707L58.4428 33H50.477L50.2252 32.5707C50.2252 32.5707 51.6105 32.356 50.4456 30.3322L48.5879 26.8365L47.4545 28.6457V30.1789C47.4545 32.3254 48.9658 32.5707 48.9658 32.5707V33Z" fill="white"/>
<path d="M69.3315 31.2215C68.9537 31.7428 67.7258 33 65.2699 33C60.3582 33 56.9578 30.9761 56.9578 26.2232C56.9578 22.2368 60.3582 19.1704 65.018 19.1704C67.1905 19.1704 69.0796 20.0903 70.1186 21.1942C69.8038 22.4821 68.2295 23.0341 66.5608 22.7581C67.3165 22.1141 67.222 19.8143 65.018 19.8143C62.7826 19.8143 61.964 22.8194 61.964 26.1312C61.964 29.4736 63.1289 32.1414 65.2699 32.1414C67.4109 32.1414 68.1351 30.5162 68.4814 29.7802L69.3315 31.2215Z" fill="white"/>
<path d="M77.28 15L70.7941 15.7053V16.1346C70.7941 16.1346 72.3054 16.3492 72.3054 18.5264V30.3015C72.3054 32.448 70.7941 32.5707 70.7941 32.5707V33H78.7599V32.5707C78.7599 32.5707 77.2486 32.356 77.2486 30.3322V18.833C77.2486 16.8705 77.28 15 77.28 15Z" fill="white"/>
<path d="M89.0371 23.8007C89.0371 17.8518 84.1569 21.2862 85.3533 23.0034L81.4176 21.8688C82.7085 20.3049 83.7475 19.4463 86.6757 19.293C87.3369 19.2624 94.0432 18.8944 93.9802 24.2913C93.9173 27.7871 93.9802 30.1789 93.9802 30.1789C93.9802 32.356 95.4915 32.5707 95.4915 32.5707V33H91.1781C90.0761 33 89.6668 32.6014 89.5723 32.2947C89.0371 32.816 87.8406 33 86.6442 33C80.662 33 79.4341 30.9148 79.4341 28.4003C79.4341 23.8927 84.9125 23.8007 89.0371 23.8007ZM89.0371 24.5673C87.085 24.6286 84.4087 24.7206 84.4087 28.339C84.4087 30.9455 85.2588 32.1414 87.3369 32.1414C87.7147 32.1414 89.0371 31.8654 89.0371 30.0869C89.0371 28.523 89.0371 28.523 89.0371 24.5673Z" fill="white"/>
<path d="M102.704 20.5503C106.986 17.3305 111.489 19.8143 111.489 22.6968C111.489 27.1431 111.489 30.3015 111.489 30.3015C111.489 32.448 113 32.5707 113 32.5707V33H105.034V32.5707C105.034 32.5707 106.546 32.356 106.546 30.3322V23.862C106.546 21.3169 105.444 19.845 102.704 21.3169C102.704 21.8688 102.862 30.3322 102.862 30.3322C102.862 32.356 104.373 32.5707 104.373 32.5707V33H96.3758V32.5707C96.4073 32.5707 97.9186 32.448 97.9186 30.3015L97.8871 22.7888C97.8871 20.6116 96.3758 20.3663 96.3758 20.3663V19.937L102.704 19.2317C102.704 19.2317 102.704 19.753 102.704 20.5503Z" fill="white"/>
</svg>
