<svg width="105" height="27" viewBox="0 0 105 27" fill="none" xmlns="http://www.w3.org/2000/svg">
<path d="M11.6167 27H0V26.356C0 26.356 2.20396 26.0341 2.20396 22.9983V4.0017C2.20396 1.05792 0 0.643952 0 0.643952V0H11.6167V0.643952C11.6167 0.643952 9.41276 0.965927 9.41276 4.23169V16.7428L17.2644 3.86371C18.8714 1.19591 16.9889 0.643952 16.9889 0.643952L17.4021 0H24.1059L23.6926 0.643952C23.1875 0.689948 20.754 1.60988 19.4224 4.0017L14.6931 11.8211L20.7999 22.7683C22.6365 25.9881 25.0701 26.356 25.0701 26.356L25.4374 27H13.8207L13.4534 26.356C13.4534 26.356 15.4737 26.0341 13.7748 22.9983L11.0657 17.7547L9.41276 20.4685V22.7683C9.41276 25.9881 11.6167 26.356 11.6167 26.356V27Z" fill="white"/>
<path d="M41.3168 24.3322C40.7658 25.1141 38.9751 27 35.3936 27C28.2308 27 23.2718 23.9642 23.2718 16.8348C23.2718 10.8552 28.2308 6.25553 35.0263 6.25553C38.1945 6.25553 40.9495 7.63543 42.4647 9.29131C42.0055 11.2232 39.7097 12.0511 37.2762 11.6371C38.3782 10.6712 38.2404 7.22147 35.0263 7.22147C31.7663 7.22147 30.5725 11.7291 30.5725 16.6968C30.5725 21.7104 32.2714 25.7121 35.3936 25.7121C38.5159 25.7121 39.572 23.2743 40.0771 22.1704L41.3168 24.3322Z" fill="white"/>
<path d="M52.9084 0L43.4497 1.05792V1.70187C43.4497 1.70187 45.6537 2.02385 45.6537 5.28961V22.9523C45.6537 26.1721 43.4497 26.356 43.4497 26.356V27H55.0664V26.356C55.0664 26.356 52.8625 26.0341 52.8625 22.9983V5.74957C52.8625 2.80579 52.9084 0 52.9084 0Z" fill="white"/>
<path d="M70.054 13.201C70.054 4.27768 62.9371 9.4293 64.6819 12.0051L58.9424 10.3032C60.825 7.95741 62.3402 6.6695 66.6104 6.43952C67.5746 6.39353 77.3547 5.84157 77.2628 13.937C77.171 19.1806 77.2628 22.7683 77.2628 22.7683C77.2628 26.0341 79.4668 26.356 79.4668 26.356V27H73.1763C71.5693 27 70.9724 26.402 70.8346 25.9421C70.054 26.724 68.3092 27 66.5644 27C57.8404 27 56.0497 23.8722 56.0497 20.1005C56.0497 13.339 64.0391 13.201 70.054 13.201ZM70.054 14.3509C67.2073 14.4429 63.3044 14.5809 63.3044 20.0085C63.3044 23.9182 64.5441 25.7121 67.5746 25.7121C68.1256 25.7121 70.054 25.2981 70.054 22.6303C70.054 20.2845 70.054 20.2845 70.054 14.3509Z" fill="white"/>
<path d="M89.9855 8.32538C96.2301 3.49574 102.796 7.22146 102.796 11.5451C102.796 18.2146 102.796 22.9523 102.796 22.9523C102.796 26.1721 105 26.356 105 26.356V27H93.3833V26.356C93.3833 26.356 95.5872 26.0341 95.5872 22.9983V13.293C95.5872 9.4753 93.9802 7.26746 89.9855 9.4753C89.9855 10.3032 90.2151 22.9983 90.2151 22.9983C90.2151 26.0341 92.419 26.356 92.419 26.356V27H80.7564V26.356C80.8023 26.356 83.0063 26.1721 83.0063 22.9523L82.9604 11.6831C82.9604 8.41738 80.7564 8.0494 80.7564 8.0494V7.40545L89.9855 6.34753C89.9855 6.34753 89.9855 7.12947 89.9855 8.32538Z" fill="white"/>
</svg>
