<svg width="477" height="366" viewBox="0 0 477 366" fill="none" xmlns="http://www.w3.org/2000/svg">
<path d="M110.821 253.333L147.715 195.171L65.0889 142.5L22.4187 209.768L90.7608 253.333H110.821Z" fill="#859FD1"/>
<path fill-rule="evenodd" clip-rule="evenodd" d="M70.9489 270.046H161.833V252.454H70.9489V270.046ZM160.652 268.911H72.1283V253.589H160.652V268.911Z" fill="#FFA776"/>
<path d="M151.686 267.407C154.853 267.407 157.421 264.848 157.421 261.69C157.421 258.532 154.853 255.972 151.686 255.972C148.518 255.972 145.95 258.532 145.95 261.69C145.95 264.848 148.518 267.407 151.686 267.407Z" fill="white"/>
<path d="M134.038 267.407C137.206 267.407 139.774 264.848 139.774 261.69C139.774 258.532 137.206 255.972 134.038 255.972C130.871 255.972 128.303 258.532 128.303 261.69C128.303 264.848 130.871 267.407 134.038 267.407Z" fill="white"/>
<path d="M118.156 267.407C121.323 267.407 123.891 264.848 123.891 261.69C123.891 258.532 121.323 255.972 118.156 255.972C114.988 255.972 112.42 258.532 112.42 261.69C112.42 264.848 114.988 267.407 118.156 267.407Z" fill="white"/>
<path d="M101.391 267.407C104.558 267.407 107.126 264.848 107.126 261.69C107.126 258.532 104.558 255.972 101.391 255.972C98.2231 255.972 95.6553 258.532 95.6553 261.69C95.6553 264.848 98.2231 267.407 101.391 267.407Z" fill="white"/>
<path d="M84.6256 267.407C87.7932 267.407 90.361 264.848 90.361 261.69C90.361 258.532 87.7932 255.972 84.6256 255.972C81.4581 255.972 78.8903 258.532 78.8903 261.69C78.8903 264.848 81.4581 267.407 84.6256 267.407Z" fill="white"/>
<path d="M271.655 66.7998V21.8725H294.188V0H183.892V109.954H278.177V99.2033C278.177 95.1561 279.79 91.2746 282.661 88.4127C285.532 85.5509 289.425 83.9431 293.485 83.9431H294.188V66.7998H271.655Z" fill="#9DA586"/>
<rect x="319.777" y="284.12" width="74.1189" height="14.9537" fill="#00747B"/>
<rect x="300.365" y="208.472" width="108.531" height="14.0741" fill="#F0F0F0"/>
<path d="M0.359497 364.167H462.72V365.046H0.359497V364.167Z" fill="#CCCCCC"/>
<path fill-rule="evenodd" clip-rule="evenodd" d="M292.455 365.046H427.394C436.179 365.036 443.298 357.943 443.308 349.19V99.4215C443.298 90.6682 436.179 83.5748 427.394 83.5648H292.455C283.67 83.5748 276.551 90.6682 276.541 99.4215V349.19C276.551 357.943 283.67 365.036 292.455 365.046ZM277.727 99.4215C277.736 91.3211 284.324 84.7567 292.454 84.7475H427.393C435.523 84.7567 442.111 91.3211 442.12 99.4215V349.19C442.111 357.29 435.523 363.854 427.393 363.864H292.454C284.324 363.854 277.736 357.29 277.727 349.19V99.4215Z" fill="#C0C0C0"/>
<path fill-rule="evenodd" clip-rule="evenodd" d="M340.953 92.3611C340.953 94.3043 342.534 95.8796 344.483 95.8796C346.431 95.8775 348.01 94.3035 348.012 92.3611C348.012 90.4179 346.432 88.8426 344.483 88.8426C342.534 88.8426 340.953 90.4179 340.953 92.3611ZM342.13 92.3612C342.13 91.0657 343.184 90.0155 344.483 90.0155C345.782 90.0169 346.835 91.0662 346.836 92.3612C346.836 93.6566 345.783 94.7068 344.483 94.7068C343.184 94.7068 342.13 93.6566 342.13 92.3612Z" fill="#A3A3A3"/>
<rect x="353.307" y="91.4815" width="26.471" height="0.87963" fill="#A3A3A3"/>
<path d="M433.602 100.278V147.778C407.287 147.777 385.955 126.511 385.954 100.278H433.602Z" fill="#00747B"/>
<path fill-rule="evenodd" clip-rule="evenodd" d="M287.129 349.213H433.602V100.278H287.129V349.213ZM432.415 348.03H288.314V101.46H432.415V348.03Z" fill="#C0C0C0"/>
<path opacity="0.1" d="M398.748 145.139C407.764 145.139 415.072 137.853 415.072 128.866C415.072 119.878 407.764 112.593 398.748 112.593C389.733 112.593 382.425 119.878 382.425 128.866C382.425 137.853 389.733 145.139 398.748 145.139Z" fill="black"/>
<path d="M396.101 146.898C405.117 146.898 412.425 139.612 412.425 130.625C412.425 121.638 405.117 114.352 396.101 114.352C387.086 114.352 379.778 121.638 379.778 130.625C379.778 139.612 387.086 146.898 396.101 146.898Z" fill="#00747B"/>
<rect x="293.306" y="109.954" width="22.9416" height="7.91667" fill="#A3A3A3"/>
<rect x="305.659" y="189.12" width="22.9416" height="7.91667" fill="#A3A3A3"/>
<path fill-rule="evenodd" clip-rule="evenodd" d="M306.541 219.907H415.955V204.954H306.541V219.907ZM414.764 218.757H307.729V206.104H414.764V218.757Z" fill="#FFA776"/>
<rect x="300.365" y="253.333" width="108.531" height="14.0741" fill="#F0F0F0"/>
<rect x="305.659" y="233.102" width="22.9416" height="7.91667" fill="#A3A3A3"/>
<path fill-rule="evenodd" clip-rule="evenodd" d="M306.541 264.769H415.955V249.815H306.541V264.769ZM414.764 263.618H307.729V250.965H414.764V263.618Z" fill="#FFA776"/>
<path fill-rule="evenodd" clip-rule="evenodd" d="M323.306 295.556H398.307V279.722H323.306V295.556ZM397.116 294.425H324.496V280.853H397.116V294.425Z" fill="#A3A3A3"/>
<path d="M411.543 214.19C411.543 216.601 410.025 218.753 407.749 219.57C405.473 220.386 402.928 219.691 401.388 217.832L401.382 217.826C399.881 216.011 399.649 213.465 400.796 211.409C401.943 209.354 404.236 208.209 406.574 208.524C408.912 208.839 410.818 210.55 411.377 212.835C411.377 212.836 411.377 212.838 411.378 212.839C411.379 212.84 411.381 212.841 411.382 212.84C411.488 213.283 411.542 213.735 411.543 214.19Z" fill="#FF5656"/>
<path opacity="0.1" d="M411.543 213.86C411.543 216.411 409.986 218.687 407.651 219.55C405.316 220.413 402.706 219.678 401.125 217.712L401.119 217.706C401.011 217.238 400.955 216.76 400.954 216.279C400.955 213.728 402.512 211.452 404.846 210.589C407.181 209.725 409.792 210.461 411.372 212.427C411.372 212.429 411.373 212.43 411.374 212.431C411.375 212.432 411.377 212.433 411.378 212.433C411.487 212.9 411.542 213.379 411.543 213.86Z" fill="black"/>
<path d="M408.455 222.546C411.622 222.546 414.19 219.986 414.19 216.829C414.19 213.671 411.622 211.111 408.455 211.111C405.287 211.111 402.719 213.671 402.719 216.829C402.719 219.986 405.287 222.546 408.455 222.546Z" fill="#FF5656"/>
<path d="M411.543 258.171C411.543 260.583 410.025 262.735 407.749 263.551C405.473 264.367 402.928 263.672 401.388 261.813L401.382 261.808C399.881 259.993 399.649 257.446 400.796 255.391C401.943 253.335 404.236 252.19 406.574 252.505C408.912 252.82 410.818 254.531 411.377 256.816C411.377 256.818 411.377 256.819 411.378 256.82C411.379 256.821 411.381 256.822 411.382 256.822C411.488 257.264 411.542 257.717 411.543 258.171Z" fill="#4DF4FF"/>
<path opacity="0.1" d="M411.543 258.721C411.543 261.272 409.986 263.548 407.651 264.411C405.316 265.275 402.706 264.539 401.125 262.573L401.119 262.567C401.011 262.1 400.955 261.621 400.954 261.14C400.955 258.589 402.512 256.313 404.846 255.45C407.181 254.587 409.792 255.322 411.372 257.288C411.372 257.29 411.373 257.291 411.374 257.292C411.375 257.293 411.377 257.294 411.378 257.294C411.487 257.762 411.542 258.24 411.543 258.721Z" fill="black"/>
<path d="M408.455 267.407C411.622 267.407 414.19 264.848 414.19 261.69C414.19 258.532 411.622 255.972 408.455 255.972C405.287 255.972 402.719 258.532 402.719 261.69C402.719 264.848 405.287 267.407 408.455 267.407Z" fill="#4DF4FF"/>
<rect x="278.305" y="28.1482" width="30.8829" height="30.787" fill="#F0F0F0"/>
<path fill-rule="evenodd" clip-rule="evenodd" d="M391.249 43.1019C391.249 46.9883 394.409 50.1389 398.308 50.1389C402.204 50.1346 405.362 46.9865 405.367 43.1019C405.367 39.2154 402.206 36.0648 398.308 36.0648C394.409 36.0648 391.249 39.2154 391.249 43.1019ZM392.424 43.1019C392.424 39.8632 395.058 37.2377 398.307 37.2377C401.554 37.2414 404.185 39.8647 404.189 43.1019C404.189 46.3406 401.555 48.9661 398.307 48.9661C395.058 48.9661 392.424 46.3406 392.424 43.1019Z" fill="#FFA776"/>
<path fill-rule="evenodd" clip-rule="evenodd" d="M227.128 149.537H242.128V134.583H227.128V149.537ZM240.974 148.387H228.281V135.734H240.974V148.387Z" fill="#FFA776"/>
<path fill-rule="evenodd" clip-rule="evenodd" d="M461.838 264.769H476.838V249.815H461.838V264.769ZM475.683 263.618H462.991V250.965H475.683V263.618Z" fill="#FFA776"/>
<path d="M172.421 161.768L175.066 163.198L184.067 168.067L198.597 175.926L207.065 160.155C208.675 157.162 209.034 153.649 208.062 150.39C207.089 147.132 204.866 144.395 201.881 142.784C195.402 139.272 187.405 140.361 182.092 145.48L182.087 145.484C180.813 146.712 179.738 148.133 178.901 149.694L172.421 161.768Z" fill="black"/>
<path d="M212.128 320.256L210.424 340.382L204.034 341.296L199.775 318.426L212.128 320.256Z" fill="#FFB8B8"/>
<path d="M201.85 341.84C201.85 341.84 210.299 337.326 212.078 340.937C212.078 340.937 210.744 351.771 216.08 353.125C221.416 354.48 223.64 363.959 216.08 364.862C208.52 365.765 203.629 363.056 200.961 363.056C198.292 363.056 200.961 353.577 200.961 353.577L201.85 341.84Z" fill="#323232"/>
<path d="M158.303 320.256L160.008 340.382L166.397 341.296L170.657 318.426L158.303 320.256Z" fill="#FFB8B8"/>
<path d="M169.464 341.84C169.464 341.84 161.014 337.326 159.236 340.937C159.236 340.937 160.57 351.771 155.233 353.125C149.897 354.48 147.674 363.959 155.233 364.862C162.793 365.765 167.685 363.056 170.353 363.056C173.021 363.056 170.353 353.577 170.353 353.577L169.464 341.84Z" fill="#323232"/>
<path d="M194.039 165.37C200.618 165.37 205.951 160.054 205.951 153.495C205.951 146.937 200.618 141.62 194.039 141.62C187.461 141.62 182.127 146.937 182.127 153.495C182.127 160.054 187.461 165.37 194.039 165.37Z" fill="#FFB8B8"/>
<path d="M158.303 175.75L167.563 190.435L178.587 189.545L196.666 190.88C196.666 190.88 198.373 187.435 199.766 184.085C200.529 182.411 201.116 180.662 201.517 178.865C201.958 175.75 195.784 172.635 195.784 172.635C195.784 172.635 195.542 172.591 195.136 172.493C194.598 172.364 193.769 172.15 192.861 171.839C190.811 171.135 188.346 169.943 187.847 168.185C186.965 165.07 193.58 160.62 193.58 160.62L185.643 153.056C185.643 153.056 178.592 162.939 170.028 165.19C169.532 165.323 169.028 165.427 168.52 165.502C168.494 165.506 168.472 165.511 168.445 165.515C159.185 166.85 158.303 175.75 158.303 175.75Z" fill="#FFB8B8"/>
<path d="M162.949 172.407L157.842 176.399C157.842 176.399 153.663 195.472 155.056 200.795C156.449 206.117 154.592 210.996 154.592 211.884C154.592 212.771 150.413 246.037 150.413 246.037C150.413 246.037 142.056 263.779 150.877 262.005C159.699 260.231 156.449 242.489 156.449 242.489L167.127 211.44V185.27L162.949 172.407Z" fill="#FFB8B8"/>
<path d="M198.05 175.926L201.66 178.565L203.465 215.505L217.003 247.169C217.003 247.169 226.93 262.561 220.613 263C214.295 263.44 210.234 247.169 210.234 247.169L198.05 216.825L196.245 187.36L198.05 175.926Z" fill="#FFB8B8"/>
<path d="M175.716 177.685C175.716 177.685 184.617 183.911 198.857 181.687C198.857 181.687 202.862 189.692 200.637 194.139C198.412 198.586 203.307 209.258 204.197 210.592C205.087 211.927 215.323 239.497 218.883 269.292C222.443 299.086 232.233 319.542 223.778 322.21C215.323 324.878 197.967 327.991 196.187 325.323C194.407 322.655 191.737 256.396 191.737 256.396L186.842 281.743C186.842 281.743 193.517 324.878 188.622 325.768C183.727 326.657 153.02 323.989 153.911 318.653C154.801 313.316 163.701 285.301 163.701 285.301C163.701 285.301 163.256 229.27 172.156 218.597C172.156 218.597 175.716 212.816 170.821 205.256C165.926 197.696 166.371 185.69 166.371 185.69C166.371 185.69 169.931 185.69 175.716 177.685Z" fill="#00747B"/>
<path d="M168.009 165.68L175.139 182.083L176.833 181.198L169.458 165.37L168.009 165.68Z" fill="#00747B"/>
<path d="M191.713 171.407L197.406 183.722L198.771 183.603L198.307 181.507L194.038 172.059C193.489 171.93 192.641 171.718 191.713 171.407Z" fill="#00747B"/>
<path d="M174.518 162.752C175.391 165.625 177.862 167.682 180.79 167.974C183.717 168.265 186.53 166.734 187.928 164.087C182.311 156.575 187.129 151.856 196.254 148.286C197.659 145.617 197.349 142.344 195.468 140.002C190.374 139.335 185.258 141.058 181.547 144.689L181.543 144.694L175.06 156.993C174.127 158.759 173.932 160.836 174.518 162.752Z" fill="black"/>
<path d="M187.863 157.454C188.594 157.454 189.186 156.272 189.186 154.815C189.186 153.357 188.594 152.176 187.863 152.176C187.132 152.176 186.539 153.357 186.539 154.815C186.539 156.272 187.132 157.454 187.863 157.454Z" fill="#FFB8B8"/>
<path d="M192.716 150.523L206.138 156.574L208.598 151.172C208.174 149.197 207.287 147.351 206.009 145.783L196.77 141.62L192.716 150.523Z" fill="black"/>
<path d="M224.922 269.167C228.09 269.167 230.658 266.607 230.658 263.449C230.658 260.291 228.09 257.732 224.922 257.732C221.755 257.732 219.187 260.291 219.187 263.449C219.187 266.607 221.755 269.167 224.922 269.167Z" fill="white"/>
<path d="M34.3307 304.352C36.5236 304.352 38.3014 302.58 38.3014 300.394C38.3014 298.207 36.5236 296.435 34.3307 296.435C32.1378 296.435 30.36 298.207 30.36 300.394C30.36 302.58 32.1378 304.352 34.3307 304.352Z" fill="#FF6584"/>
<rect x="52.4193" y="321.065" width="0.881683" height="43.9815" fill="#406C38"/>
<path d="M53.3016 326.343C56.7129 326.343 59.4782 323.586 59.4782 320.185C59.4782 316.785 56.7129 314.028 53.3016 314.028C49.8904 314.028 47.1251 316.785 47.1251 320.185C47.1251 323.586 49.8904 326.343 53.3016 326.343Z" fill="#FFE870"/>
<path d="M52.4192 347.454C52.4192 347.454 51.5574 328.742 33.8895 330.917L52.4192 347.454Z" fill="#406C38"/>
</svg>
