<svg width="56" height="56" viewBox="0 0 56 56" fill="none" xmlns="http://www.w3.org/2000/svg">
<g clip-path="url(#clip0)">
<path d="M10.3586 0.694519C13.1738 0.694519 15.7347 1.57182 17.6012 2.98888C19.5266 4.45538 20.717 6.4985 20.717 8.77121C20.717 10.5973 19.9481 12.2716 18.6459 13.6234C17.4151 14.9008 15.7006 15.8867 13.7131 16.4138L11.0157 20.0413C10.6808 20.4908 10.0112 20.4753 9.69183 20.0288L7.00383 16.4138C5.01638 15.8867 3.30192 14.9008 2.07091 13.6234C0.768906 12.2715 0 10.5972 0 8.7711C0 6.4985 1.19055 4.45527 3.11905 2.98877C4.98236 1.57193 7.54338 0.694519 10.3586 0.694519ZM51.1911 10.3927H48.0009V23.5633H51.1911V10.3927ZM47.1792 8.7525H52.0097C52.4624 8.7525 52.8314 9.11836 52.8314 9.57107V24.3818C52.8314 24.8375 52.4624 25.2034 52.0097 25.2034H47.1792C46.7265 25.2034 46.3607 24.8375 46.3607 24.3818V9.57107C46.3607 9.11836 46.7266 8.7525 47.1792 8.7525ZM34.0955 16.3175V13.0467H30.905V14.9069C32.0367 15.2448 33.1065 15.7223 34.0955 16.3175ZM29.2649 14.5255V12.2251C29.2649 11.7725 29.6338 11.4065 30.0865 11.4065H34.9171C35.3698 11.4065 35.7355 11.7725 35.7355 12.2251V17.4741C36.0952 17.7686 36.4394 18.0787 36.7679 18.4073C37.1369 18.7763 37.4872 19.1669 37.8128 19.5761V6.38694C37.8128 5.93424 38.1787 5.56532 38.6313 5.56532H43.4649C43.9176 5.56532 44.2833 5.93424 44.2833 6.38694V24.3818C44.2833 24.8375 43.9175 25.2034 43.4649 25.2034H40.5132C40.631 25.7336 40.7209 26.2762 40.7766 26.8312H54.3598V2.3346H42.9069C42.4542 2.3346 42.0853 1.96874 42.0853 1.51614C42.0853 1.06355 42.4542 0.694519 42.9069 0.694519H55.1815C55.6343 0.694519 56 1.06344 56 1.51614V27.6497C56 28.1024 55.6341 28.4713 55.1815 28.4713H40.8482C40.8389 29.0387 40.7923 29.6061 40.7148 30.1734C40.628 30.8184 40.4947 31.4446 40.3243 32.0492C40.2033 32.4832 39.7507 32.7375 39.3166 32.6166C38.8794 32.4926 38.6252 32.043 38.7492 31.6059C38.9011 31.0664 39.0158 30.5145 39.0934 29.9564C39.1677 29.4107 39.2081 28.8464 39.2081 28.2605C39.2081 24.8655 37.8315 21.7931 35.6086 19.5668C33.3823 17.3439 30.3099 15.9672 26.9149 15.9672C24.4841 15.9672 22.2208 16.671 20.3172 17.8833C18.3515 19.1359 16.7641 20.9372 15.7688 23.0735C15.5766 23.4859 15.0898 23.6626 14.6775 23.4703C14.2682 23.2812 14.0915 22.7913 14.2807 22.382C15.4061 19.9699 17.2045 17.9298 19.4398 16.5068C21.3869 15.2635 23.6595 14.4946 26.0964 14.352V1.51614C26.0964 1.06344 26.4623 0.694519 26.9149 0.694519H39.1895C39.6422 0.694519 40.0111 1.06344 40.0111 1.51614C40.0111 1.96885 39.6422 2.3346 39.1895 2.3346H27.7365V14.3518C28.2542 14.3798 28.7658 14.4387 29.2649 14.5255ZM40.0358 23.5633H42.6435V7.20857H39.453V22.1743C39.6732 22.6239 39.8653 23.0889 40.0358 23.5633ZM47.5978 36.4052C47.2784 36.7246 46.7576 36.7246 46.4382 36.4052C46.1188 36.0859 46.1188 35.565 46.4382 35.2456L49.0115 32.6723C49.1666 32.5172 49.3742 32.4274 49.5945 32.4274C49.8145 32.4274 50.0254 32.5173 50.1772 32.6723L52.7507 35.2456C53.0731 35.565 53.0731 36.0859 52.7507 36.4052C52.4313 36.7246 51.9136 36.7246 51.5911 36.4052L50.416 35.2302V42.541C50.416 43.9331 49.8455 45.2012 48.9277 46.1188C48.0099 47.0366 46.742 47.607 45.3468 47.607H37.0811C36.6284 47.607 36.2593 47.2411 36.2593 46.7854C36.2593 46.3327 36.6284 45.9668 37.0811 45.9668H45.3468C46.2892 45.9668 47.1449 45.5793 47.7682 44.9592C48.3883 44.3391 48.7758 43.4803 48.7758 42.5408V35.2301L47.5978 36.4052ZM13.5148 44.7361C13.1924 44.4167 13.1924 43.8959 13.5148 43.5765C13.8342 43.2571 14.3519 43.2571 14.6743 43.5765L17.2477 46.1499C17.4027 46.3018 17.4895 46.5127 17.4895 46.7328C17.4895 46.956 17.4027 47.1637 17.2446 47.3187L14.6744 49.889C14.352 50.2114 13.8342 50.2114 13.5149 49.889C13.1925 49.5697 13.1925 49.0518 13.5149 48.7294L14.6899 47.5544H8.40219C7.007 47.5544 5.74197 46.9839 4.82431 46.0662C3.90655 45.1485 3.33616 43.8804 3.33616 42.4852V18.863C3.33616 18.4104 3.70202 18.0414 4.15461 18.0414C4.60731 18.0414 4.97623 18.4104 4.97623 18.863V42.4852C4.97623 43.4278 5.36069 44.2834 5.98391 44.9066C6.60395 45.5267 7.4597 45.9142 8.4023 45.9142H14.6899L13.5148 44.7361ZM6.77141 9.59272C6.3187 9.59272 5.94978 9.2238 5.94978 8.7711C5.94978 8.31839 6.31881 7.95264 6.77141 7.95264H13.9457C14.3985 7.95264 14.7674 8.3185 14.7674 8.7711C14.7674 9.2238 14.3983 9.59272 13.9457 9.59272H6.77141ZM6.77141 12.6343C6.3187 12.6343 5.94978 12.2653 5.94978 11.8127C5.94978 11.36 6.31881 10.9941 6.77141 10.9941H12.1228C12.5755 10.9941 12.9412 11.36 12.9412 11.8127C12.9412 12.2653 12.5754 12.6343 12.1228 12.6343H6.77141ZM6.77141 6.55111C6.3187 6.55111 5.94978 6.18525 5.94978 5.73266C5.94978 5.27689 6.31881 4.91104 6.77141 4.91104H13.9457C14.3985 4.91104 14.7674 5.27689 14.7674 5.73266C14.7674 6.18536 14.3983 6.55111 13.9457 6.55111H6.77141ZM27.7365 40.0762V43.6292H31.5625V40.1816C31.5625 39.8716 31.7423 39.5739 32.043 39.4374C33.1345 38.9352 34.139 38.281 35.0289 37.4966C35.9248 36.7091 36.7031 35.7945 37.3418 34.7806C37.5806 34.3961 38.0859 34.2815 38.4672 34.5232C38.8518 34.765 38.9664 35.2705 38.7247 35.6518C38.0053 36.7989 37.1218 37.8344 36.1079 38.7274C35.2303 39.4963 34.2569 40.1567 33.2028 40.69V44.4508V49.0146C33.2028 50.754 32.4988 52.3259 31.361 53.4637C30.2232 54.6016 28.6513 55.3053 26.915 55.3053C25.1787 55.3053 23.6068 54.6015 22.469 53.4637C21.3312 52.3259 20.6274 50.754 20.6274 49.0146V44.4508V40.69C18.4013 39.5614 16.5193 37.8562 15.1799 35.7697C13.791 33.5993 12.9849 31.0229 12.9849 28.2604C12.9849 27.9131 12.9972 27.5598 13.0252 27.2032C13.0501 26.8466 13.0903 26.4963 13.143 26.1553C13.2081 25.7057 13.6267 25.3987 14.0732 25.4669C14.5227 25.5319 14.8296 25.9506 14.7645 26.397C14.718 26.7071 14.6807 27.0171 14.6591 27.3241C14.6343 27.6247 14.625 27.938 14.625 28.2604C14.625 30.7005 15.3349 32.9761 16.5597 34.886C17.8153 36.8424 19.6074 38.4205 21.7281 39.4095C22.0443 39.5212 22.2675 39.8251 22.2675 40.1816V43.6292H26.0965V40.0762L20.032 28.2139L19.7902 28.3534C19.4027 28.5828 18.9004 28.4526 18.674 28.0619C18.4446 27.6744 18.5748 27.172 18.9655 26.9457L21.4769 25.476C21.7466 25.3179 22.066 25.3304 22.3171 25.4823L24.4036 26.7038L26.5027 25.476C26.7724 25.3179 27.0918 25.3304 27.3429 25.4823L29.4294 26.7038L31.5283 25.476C31.7982 25.3179 32.1175 25.3304 32.3655 25.4823L34.8675 26.9457C35.2582 27.172 35.3885 27.6743 35.159 28.0619C34.9296 28.4526 34.4305 28.5827 34.0398 28.3534L33.801 28.2139L27.7365 40.0762ZM21.889 27.1256L21.4457 27.3861L26.9148 38.0918L32.387 27.3861L31.9406 27.1256L29.854 28.3473C29.606 28.4992 29.2835 28.5115 29.0138 28.3535L26.9148 27.1258L24.8281 28.3474C24.5801 28.4993 24.2577 28.5116 23.9911 28.3536L21.889 27.1256ZM30.2013 52.3011C30.8586 51.6439 31.3205 50.7912 31.491 49.8364H22.3417C22.5092 50.7912 22.971 51.6439 23.6284 52.3011C24.4717 53.1444 25.6314 53.6654 26.9149 53.6654C28.1985 53.6654 29.3611 53.1444 30.2013 52.3011ZM22.2673 45.2725V48.1962H31.5623V45.2725H22.2673ZM16.606 4.29099C15.0185 3.08174 12.8111 2.3346 10.3586 2.3346C7.90617 2.3346 5.69866 3.08185 4.11119 4.29099C2.58573 5.45364 1.64008 7.03794 1.64008 8.7711C1.64008 10.1539 2.23847 11.4405 3.2492 12.4885C4.32195 13.6046 5.85659 14.4573 7.64247 14.8913C7.83781 14.9285 8.01763 15.0371 8.14472 15.2076L10.3585 18.184L12.5753 15.2076C12.6838 15.0588 12.8481 14.9472 13.0403 14.9007C14.8416 14.4666 16.3889 13.6109 17.4677 12.4885C18.4785 11.4405 19.0769 10.1539 19.0769 8.7711C19.077 7.03794 18.1314 5.45364 16.606 4.29099Z" fill="black"/>
</g>
<defs>
<clipPath id="clip0">
<rect width="56" height="56" fill="white"/>
</clipPath>
</defs>
</svg>
