<svg width="68" height="100" viewBox="0 0 68 100" fill="none" xmlns="http://www.w3.org/2000/svg">
<path fill-rule="evenodd" clip-rule="evenodd" d="M67.9953 36.755C67.9827 36.8213 67.9451 36.875 67.8885 36.9097L65.0666 38.7378L66.5984 51.1336C66.6078 51.2094 66.5764 51.2883 66.5231 51.3388C66.4666 51.3894 66.3912 51.4146 66.319 51.4052L63.9742 51.0168L59.0208 71.6028C58.9957 71.7038 58.9078 71.7796 58.8105 71.789C58.7037 71.7985 58.6096 71.7448 58.5656 71.647L56.3212 66.6678L49.9615 82.5019C49.9207 82.5967 49.8265 82.663 49.7198 82.6535L44.4556 82.2462L40.7735 99.8106C40.7547 99.9116 40.6699 99.9874 40.5664 100C40.5601 100 40.5507 100 40.5412 100C40.4439 100 40.3592 99.9463 40.3215 99.8611L35.7165 89.9817L31.2466 91.8004C31.2403 91.8067 31.234 91.8067 31.234 91.8067C31.2309 91.8098 31.2246 91.8098 31.2214 91.8098C31.1963 91.8161 31.1744 91.8193 31.1555 91.8193C31.1492 91.8193 31.1398 91.8193 31.1367 91.8193C31.1304 91.8193 31.1304 91.8161 31.1273 91.8161C31.1053 91.8161 31.0865 91.8098 31.0676 91.8004C31.0613 91.8004 31.0551 91.794 31.0551 91.794C31.0362 91.7846 31.0143 91.7751 30.9986 91.7593H30.9954C30.9797 91.7435 30.964 91.7246 30.9546 91.7025C30.9515 91.7025 30.9515 91.6993 30.9452 91.693C30.9452 91.6898 30.9421 91.6898 30.9421 91.6835L24.9277 79.0825L21.6442 82.1641C21.572 82.2304 21.4716 82.2462 21.3806 82.2052C21.2895 82.1641 21.2362 82.0725 21.2393 81.9778L21.8294 67.3782C21.8294 67.3751 21.8294 67.3751 21.8294 67.3687C21.8294 67.3435 21.8357 67.3245 21.8451 67.2993L26.2461 56.438L26.3559 47.4111L20.1689 40.6859L7.06967 42.8708C7.01003 42.8803 6.94725 42.8677 6.89703 42.8361L3.66068 40.708C3.61046 40.6733 3.57593 40.6228 3.56023 40.5596L3.18669 39.022L0.0978699 36.7455C0.0225329 36.6887 -0.0119951 36.5971 0.00370014 36.5087L0.39294 34.0902C0.405496 34.0208 0.449443 33.9544 0.515363 33.9197L13.1782 26.7715L15.0522 20.4725C15.0585 20.4694 15.0585 20.4631 15.0648 20.4599C15.0648 20.4536 15.0679 20.4504 15.0742 20.4378C15.0805 20.422 15.0899 20.4125 15.0931 20.3968C15.0993 20.3936 15.1025 20.3873 15.1088 20.3841C15.1119 20.3778 15.1182 20.3715 15.1182 20.3683L24.6232 11.3257C24.6232 11.3194 24.6295 11.3194 24.6295 11.3194C24.664 11.2878 24.7142 11.2657 24.7644 11.2594H24.7676L25.2981 11.2152L24.2025 7.03483V7.03168C24.1994 7.01273 24.1994 6.98747 24.1994 6.96537C24.1994 6.96221 24.1994 6.96221 24.1994 6.9559C24.1994 6.94643 24.1994 6.93695 24.2025 6.92117C24.2025 6.91801 24.2088 6.90538 24.2088 6.89907C24.212 6.89591 24.212 6.89591 24.212 6.88959L26.4093 1.00428C26.4407 0.919035 26.5192 0.859045 26.6102 0.849573C26.7012 0.840101 26.7923 0.87799 26.8362 0.960081L29.3129 4.8973L30.4649 6.36232L31.8304 3.47334L31.8367 3.46702C31.8367 3.46071 31.8367 3.45755 31.8398 3.45123C31.8461 3.44808 31.8524 3.4386 31.8555 3.43229C31.8618 3.42597 31.8618 3.42282 31.8681 3.4165C31.8806 3.40703 31.8901 3.39124 31.9058 3.38177C31.9058 3.38177 31.9057 3.38177 31.912 3.38177L36.6017 0.0444473C36.6645 0.000244289 36.7461 -0.0123853 36.8183 0.0128736C36.8905 0.0381324 36.947 0.0949648 36.9722 0.170741L39.339 7.71682V7.72314C39.3453 7.73576 39.3453 7.75787 39.3484 7.7705C39.3484 7.77681 39.3484 7.78313 39.3484 7.7926C39.3484 7.81786 39.3453 7.8368 39.339 7.8589L38.3031 11.2973L54.2243 17.7888C54.3091 17.8267 54.3687 17.8993 54.375 17.9909C54.3844 18.0824 54.3405 18.1677 54.2651 18.2182L51.8104 19.7905L61.4033 26.6104C61.4064 26.6104 61.4064 26.6168 61.4127 26.6168C61.4253 26.6294 61.4472 26.6452 61.4567 26.6673C61.4629 26.6673 61.4629 26.6704 61.4661 26.6704L67.9576 36.5751C67.9953 36.6287 68.0078 36.695 67.9953 36.755ZM64.5894 38.8041L50.9472 34.7596L63.9208 50.5179L66.0836 50.8747L64.5894 38.8041ZM63.4939 50.9505L54.1207 49.9907L56.5378 65.989L58.7131 70.8134L63.4939 50.9505ZM55.4109 67.6403L44.7193 81.7821L49.5817 82.1546L55.4109 67.6403ZM44.013 82.0031L39.9542 71.0092L36.0901 89.6407L40.4502 99.0054L44.013 82.0031ZM21.7447 81.4095L24.733 78.6058L22.2469 69.0137L21.7447 81.4095ZM26.7609 47.1459L33.4784 53.0059L34.5425 47.85L30.8636 40.6733H20.8061L26.7609 47.1459ZM7.07909 42.3783L19.1393 40.3702L10.9527 38.1127L3.69835 39.082L4.00911 40.3544L7.07909 42.3783ZM0.499669 36.4393L3.29027 38.4979L4.87235 34.4091L2.86964 33.1462L0.8481 34.2828L0.499669 36.4393ZM25.7846 11.1804L29.6143 10.8773V8.40512L24.7676 7.30005L25.7846 11.1804ZM24.7582 6.80119L29.721 7.93152L30.2358 6.84539L28.9299 5.18778C28.9237 5.17831 28.9174 5.17515 28.9142 5.16884L26.6918 1.62944L24.7582 6.80119ZM32.4865 3.55858L38.6924 7.259L36.6112 0.628558L32.4865 3.55858ZM53.6153 18.0635L40.535 12.7244L51.3772 19.4906L53.6153 18.0635ZM51.4274 20.1094L46.2009 26.803L50.335 33.9639L60.8414 26.803L51.4274 20.1094ZM50.8153 34.2228L64.4513 38.2611L61.1333 27.1882L50.8153 34.2228ZM63.2334 50.4422L50.3162 34.7564L46.2166 43.6096L53.9261 49.4855L63.2334 50.4422ZM55.8158 64.4324L53.6153 49.8549L46.5431 44.4684L55.8158 64.4324ZM40.1363 70.1125L43.8027 80.0487L41.6022 60.3499L40.1363 70.1125ZM41.37 58.6197L34.1031 54.0415L39.7879 69.1842L41.37 58.6197ZM25.2478 78.6342L30.5152 89.6755L25.9698 67.8266L25.2478 78.6342ZM26.1488 57.9661L22.3223 67.4035L24.8649 77.185L25.6088 66.0458L26.1488 57.9661ZM26.1644 66.3963L31.2309 90.7584L39.565 70.2924L26.1644 66.3963ZM26.6918 57.0442L26.0985 65.8785L39.0753 69.6483L26.6918 57.0442ZM31.0111 51.4904L26.8111 56.479L39.2637 69.1558L33.4219 53.5995L31.0111 51.4904ZM41.9224 58.3766L55.7907 65.5217L45.9655 44.3706L41.9224 58.3766ZM33.899 53.3438L41.4924 58.124L45.5512 44.0801L35.004 47.9984L33.899 53.3438ZM31.4569 40.7712L34.9161 47.5121L45.0615 43.7486L31.4569 40.7712ZM31.5824 40.3039L45.5009 43.3507L41.009 33.3103L31.5824 40.3039ZM11.7814 37.8411L20.2348 40.1713L31.8681 34.5512H21.1545L11.7814 37.8411ZM3.77368 38.5831L10.9213 37.6359L20.9097 34.1281L23.1416 24.4287L19.6918 25.5748H19.6886C19.6823 25.5748 19.6823 25.578 19.6792 25.578L13.4984 27.1598L5.3746 34.447L3.77368 38.5831ZM11.5805 28.2302L3.34678 32.8746L5.14231 34.005L11.5805 28.2302ZM24.1837 12.4087L16.1289 20.0779L21.82 18.5908L24.1837 12.4087ZM38.708 8.28514L30.1699 13.0085L33.1111 19.2412L36.3067 16.2764L38.708 8.28514ZM50.5265 19.5316L38.1524 11.8056L36.8058 16.2764L43.583 19.478L50.5265 19.5316ZM31.46 39.7956L40.6762 32.9599L31.8775 27.5671L33.1582 34.2639C33.1614 34.2891 33.1614 34.3144 33.1614 34.3333C33.1614 34.3428 33.1582 34.3491 33.1582 34.3523C33.1582 34.3649 33.1582 34.3744 33.1519 34.3838L31.46 39.7956ZM23.6438 24.3908L21.4151 34.065H32.6309L31.325 27.2609L23.6438 24.3908ZM42.6821 19.9547L33.0892 19.879L24.099 24.0435L31.5102 26.8125L42.6821 19.9547ZM33.6479 19.4022L42.4341 19.4685L36.5609 16.6932L33.6479 19.4022ZM23.4617 23.8067L32.0972 19.8095L22.0209 19.0328L15.9814 20.6146L19.4343 22.2754L23.4617 23.8067ZM22.7523 24.053L19.4689 22.809L19.0231 23.9014L19.7231 25.0539L22.7523 24.053ZM50.8907 20.0147L43.5955 19.961L31.9968 27.0777L41.0498 32.622L45.7207 26.6357L50.8907 20.0147ZM49.9898 34.3175L45.887 27.2103L41.3857 32.9725L45.9153 43.1076L49.9898 34.3175ZM30.0945 8.2662V12.5002L38.6233 7.78312L32.1506 3.92168L30.0945 8.2662ZM24.9591 11.7298L22.3411 18.575L32.6403 19.3675L29.6394 13.0085C29.6331 13.0022 29.6331 12.9959 29.6331 12.9959C29.6299 12.9864 29.6237 12.977 29.6237 12.9675C29.6205 12.9612 29.6205 12.9517 29.6205 12.9486C29.6142 12.9359 29.6143 12.9265 29.6143 12.917C29.6143 12.9107 29.6143 11.3667 29.6143 11.3667L24.9591 11.7298ZM13.7339 26.601L19.2429 25.1896L18.5523 24.0467C18.5115 23.9835 18.5083 23.9014 18.5334 23.832L19.0294 22.6195L15.4352 20.8862L13.7339 26.601ZM30.8353 40.1871L32.5273 34.7659L21.3115 40.1871H30.8353ZM26.7358 55.8191L30.647 51.1715L26.8299 47.8405L26.7358 55.8191ZM39.1193 72.6636L31.595 91.1405L35.6287 89.4955L39.1193 72.6636ZM44.4337 81.359L55.9414 66.1405L41.9224 58.9197L44.4337 81.359ZM67.424 36.635L61.9683 28.3186L64.9441 38.239L67.424 36.635Z" fill="white" fill-opacity="0.7"/>
</svg>
