<svg width="54" height="54" viewBox="0 0 54 54" fill="none" xmlns="http://www.w3.org/2000/svg">
<path d="M37.3465 42.1455L34.4758 38.8987L32.1054 40.9946L37.2444 46.8067L45.5679 38.185L43.2916 35.9874L37.3465 42.1455Z" fill="black"/>
<path d="M38.9657 27.9842C38.6772 27.9842 38.3912 27.9947 38.1074 28.0132L37.19 12.3105H29.7039V9.25713C29.7038 4.15274 25.5511 0 20.4467 0C15.3423 0 11.1895 4.15274 11.1895 9.25713V12.3105H3.70334L2.04051 40.7737C1.9111 42.99 2.67871 45.0999 4.202 46.7147C5.72529 48.3296 7.78679 49.2189 10.0067 49.2189H28.8975C31.2849 52.1353 34.9115 54 38.9657 54C46.1382 54 51.9735 48.1647 51.9735 40.9922C51.9735 33.8195 46.1382 27.9842 38.9657 27.9842ZM14.3535 9.25713C14.3535 5.89741 17.0869 3.16407 20.4466 3.16407C23.8063 3.16407 26.5397 5.89741 26.5397 9.25713V12.3105H14.3535V9.25713ZM10.0067 46.0548C8.66704 46.0548 7.42292 45.5181 6.50365 44.5435C5.58439 43.569 5.12116 42.2957 5.19921 40.9583L6.68791 15.4746H11.1894V19.439H14.3535V15.4746H26.5397V19.439H29.7038V15.4746H34.2053L34.9728 28.6121C29.7478 30.3013 25.9579 35.2121 25.9579 40.9923C25.9579 42.787 26.3233 44.4981 26.9836 46.0549H10.0067V46.0548ZM38.9657 50.8359C33.5378 50.8359 29.1219 46.42 29.1219 40.9922C29.1219 35.5642 33.5378 31.1483 38.9657 31.1483C44.3936 31.1483 48.8095 35.5642 48.8095 40.9922C48.8095 46.42 44.3936 50.8359 38.9657 50.8359Z" fill="black"/>
</svg>
